<?xml version="1.0" encoding="utf-8"?>
<!-- Generator: Adobe Illustrator 27.0.1, SVG Export Plug-In . SVG Version: 6.00 Build 0)  -->
<svg version="1.1" id="Layer_1" xmlns="http://www.w3.org/2000/svg" xmlns:xlink="http://www.w3.org/1999/xlink" x="0px" y="0px"
	 viewBox="0 0 16 16" style="enable-background:new 0 0 16 16;" xml:space="preserve">
<style type="text/css">
	.st0{fill:#CCCCCC;}
	.st1{fill:#333333;}
</style>
<path class="st0" d="M13.2,0H2.8C1.2,0,0,1.2,0,2.8l0,0v9.4C0,13.8,1.2,15,2.8,15h10.4c1.5,0,2.8-1.2,2.8-2.8l0,0V2.8
	C16,1.2,14.8,0,13.2,0z"/>
<path class="st1" d="M8.7,5.4C8.5,5.1,8.4,4.9,8.2,4.7C7.9,4.4,7.6,4.2,7.3,4.1C6.8,4,6.4,3.9,5.9,3.9c-0.2,0-0.4,0-0.6,0l-0.6,0
	l-0.5,0c-0.2,0-0.3,0-0.4,0c0,0-0.1,0-0.1,0.1v6.9c0,0.1,0,0.1,0.1,0.1h1.3c0,0,0.1,0,0.1-0.1c0,0,0,0,0,0V8.7c0.1,0,0.2,0,0.3,0
	s0.2,0,0.3,0c0.5,0,1-0.1,1.5-0.2c0.4-0.2,0.8-0.4,1.1-0.8c0.3-0.4,0.4-0.9,0.4-1.4C8.8,6,8.8,5.7,8.7,5.4z M7.1,7
	C7,7.2,6.8,7.3,6.6,7.3C6.3,7.4,6.1,7.5,5.8,7.5H5.5c-0.1,0-0.2,0-0.3,0V5.2c0.1,0,0.1,0,0.3,0s0.3,0,0.5,0c0.3,0,0.5,0,0.8,0.1
	c0.2,0.1,0.4,0.2,0.5,0.4c0.1,0.2,0.2,0.4,0.2,0.6C7.4,6.6,7.3,6.8,7.1,7z"/>
<path class="st1" d="M12.9,10.3c-0.2,0.3-0.4,0.5-0.7,0.6c-0.4,0.2-0.8,0.2-1.2,0.2c-0.3,0-0.6,0-0.9-0.1c-0.2,0-0.5-0.1-0.7-0.2
	c0,0-0.1-0.1-0.1-0.1V9.5c0,0,0,0,0-0.1c0,0,0,0,0.1,0c0.3,0.2,0.5,0.3,0.8,0.3c0.3,0.1,0.5,0.1,0.8,0.1c0.2,0,0.4,0,0.6-0.1
	c0.1,0,0.2-0.2,0.2-0.3c0-0.1-0.1-0.2-0.2-0.3c-0.2-0.1-0.4-0.2-0.7-0.3c-0.3-0.1-0.7-0.3-0.9-0.5C9.7,8.3,9.6,8.1,9.5,7.9
	C9.4,7.7,9.3,7.4,9.3,7.2c0-0.3,0.1-0.6,0.2-0.8c0.2-0.3,0.4-0.5,0.7-0.6c0.4-0.2,0.8-0.2,1.2-0.2c0.3,0,0.6,0,0.8,0.1
	c0.2,0,0.4,0.1,0.6,0.2c0,0,0.1,0,0.1,0.1c0,0,0,0.1,0,0.1V7c0,0,0,0,0,0.1c0,0-0.1,0-0.1,0c-0.2-0.1-0.4-0.2-0.6-0.2
	c-0.2-0.1-0.5-0.1-0.7-0.1c-0.1,0-0.3,0-0.4,0c-0.1,0-0.2,0.1-0.2,0.1c0,0.1-0.1,0.1-0.1,0.2c0,0.1,0,0.1,0.1,0.2
	c0.1,0.1,0.1,0.1,0.2,0.2c0.2,0.1,0.3,0.2,0.5,0.2c0.4,0.1,0.7,0.3,1,0.5c0.2,0.1,0.4,0.3,0.5,0.6c0.1,0.2,0.2,0.4,0.2,0.7
	C13.2,9.7,13.1,10,12.9,10.3z"/>
<polygon class="st1" points="6,8.7 7.2,11 8.3,11 8.7,11 7.3,8.5 6,8.4 "/>
</svg>
